<?xml version="1.0" standalone="no"?>
<!DOCTYPE svg PUBLIC "-//W3C//DTD SVG 20010904//EN"
 "http://www.w3.org/TR/2001/REC-SVG-20010904/DTD/svg10.dtd">
<svg version="1.0" xmlns="http://www.w3.org/2000/svg"
 width="1024.000000pt" height="1024.000000pt" viewBox="0 0 1024.000000 1024.000000"
 preserveAspectRatio="xMidYMid meet">
<metadata>
Created by potrace 1.11, written by Peter Selinger 2001-2013
</metadata>
<g transform="translate(0.000000,1024.000000) scale(0.100000,-0.100000)"
fill="#000000" stroke="none">
<path d="M5340 10066 c0 -5 -7 -18 -17 -28 -12 -14 -13 -18 -3 -18 10 0 11 -3
3 -11 -15 -15 1 -76 26 -98 12 -10 21 -23 21 -28 0 -5 12 -20 26 -34 14 -13
35 -39 47 -59 12 -19 35 -48 50 -63 16 -16 30 -34 31 -40 9 -43 22 -77 41
-107 12 -19 25 -48 29 -65 4 -16 10 -41 13 -55 3 -13 15 -33 25 -45 13 -13 18
-30 15 -51 -3 -17 1 -48 9 -69 7 -20 16 -60 20 -89 4 -28 9 -62 11 -76 2 -14
5 -90 7 -170 2 -115 -2 -159 -16 -212 -10 -37 -18 -76 -18 -85 -1 -10 -9 -36
-20 -58 -11 -22 -20 -47 -20 -55 -1 -8 -9 -28 -19 -45 -16 -28 -22 -30 -82
-33 -73 -3 -122 19 -132 60 -23 101 -42 151 -67 178 -15 16 -33 30 -39 30 -5
0 -14 6 -18 13 -7 11 -46 26 -148 57 -49 14 -119 0 -129 -28 -16 -43 -38 -70
-66 -82 -31 -13 -33 -17 -30 -62 1 -20 -3 -28 -15 -28 -23 0 -75 -54 -75 -77
0 -11 12 -30 28 -44 l27 -24 -37 -3 c-26 -2 -41 -10 -52 -28 -11 -16 -26 -24
-46 -24 -35 0 -38 -15 -11 -44 24 -25 34 -75 20 -92 -17 -21 -66 -27 -97 -11
-16 7 -40 13 -53 11 -13 -1 -32 -3 -41 -3 -10 -1 -18 -8 -18 -16 0 -8 -9 -20
-20 -27 -11 -7 -20 -17 -20 -23 0 -6 -8 -15 -19 -22 -14 -9 -23 -9 -39 3 -17
12 -21 12 -26 -2 -4 -12 -14 -14 -38 -9 -23 4 -29 3 -19 -3 10 -7 -2 -11 -40
-14 -46 -3 -63 2 -114 28 -34 18 -90 40 -125 49 -35 9 -76 24 -90 34 -14 9
-52 25 -85 35 -33 10 -73 22 -89 27 -16 5 -50 9 -77 9 -58 0 -79 7 -79 27 0 9
-8 23 -18 32 -22 21 -65 87 -81 128 -7 17 -24 40 -37 50 -13 10 -24 23 -24 30
0 7 -4 13 -9 13 -14 0 -61 45 -61 58 0 6 5 12 12 14 9 3 9 6 0 12 -7 4 -12 2
-12 -3 0 -6 -4 -11 -10 -11 -5 0 -10 5 -10 11 0 20 -26 38 -41 28 -8 -5 -10
-9 -6 -9 4 0 3 -9 -3 -20 -6 -11 -7 -20 -3 -20 5 0 8 -13 8 -30 1 -16 -2 -30
-5 -30 -4 0 -7 -6 -7 -14 0 -24 -25 -76 -34 -70 -5 3 -6 -2 -3 -10 3 -9 2 -16
-3 -16 -5 0 -10 -24 -10 -52 -1 -29 -5 -73 -8 -98 -4 -25 -7 -58 -8 -75 -1
-29 -41 -74 -60 -67 -14 4 -48 -19 -42 -29 7 -10 5 -11 -45 -13 -19 -1 -46 -9
-60 -17 -85 -49 -121 -77 -126 -96 -3 -12 -19 -27 -35 -33 -16 -7 -29 -16 -29
-21 0 -5 -18 -26 -40 -48 -22 -21 -40 -48 -40 -60 0 -14 -12 -29 -34 -42 -19
-11 -37 -31 -40 -44 -3 -13 -16 -27 -27 -30 -12 -4 -33 -21 -48 -37 -73 -86
-113 -119 -137 -116 -18 2 -28 -4 -37 -21 -7 -14 -18 -26 -24 -29 -10 -3 -13
19 -13 86 0 65 -4 93 -14 101 -8 7 -15 32 -16 59 -3 103 0 150 9 174 7 18 6
29 -2 37 -14 14 -47 15 -47 1 0 -5 -14 -25 -31 -45 l-31 -35 -19 24 c-10 13
-19 29 -19 34 0 5 -8 12 -17 15 -10 2 -27 8 -37 13 -13 5 -17 4 -13 -3 9 -15
-29 -23 -43 -9 -11 11 -16 13 -51 15 -11 0 -18 5 -15 9 3 5 -6 16 -19 26 -13
10 -21 24 -18 32 3 8 0 14 -6 14 -6 0 -11 -3 -12 -7 -5 -53 -20 -69 -68 -77
-31 -5 -40 -11 -45 -31 -4 -16 -13 -25 -26 -25 -11 0 -20 5 -20 10 0 17 -28
11 -42 -8 -7 -10 -32 -31 -55 -47 -24 -15 -43 -31 -43 -36 0 -5 -27 -22 -60
-39 -68 -34 -87 -58 -93 -116 -6 -51 -33 -104 -52 -104 -8 0 -15 -6 -15 -14 0
-9 -18 -15 -53 -20 -105 -12 -103 -13 -118 54 -7 33 -17 60 -21 60 -4 0 -8 5
-8 10 0 6 -9 30 -20 53 -11 23 -25 77 -30 122 -6 44 -15 103 -21 130 -22 109
-25 146 -16 207 14 99 15 101 41 130 14 14 27 43 30 65 11 79 24 124 41 138 6
5 18 30 25 55 7 25 20 57 28 71 13 23 12 30 -6 65 l-20 40 -59 -3 c-62 -2 -82
-17 -120 -88 -9 -16 -25 -39 -37 -51 -64 -62 -97 -114 -102 -158 -1 -10 -8
-23 -17 -27 -8 -5 -20 -33 -27 -61 -7 -29 -20 -62 -30 -73 -10 -11 -21 -33
-24 -50 -4 -16 -12 -32 -17 -35 -5 -3 -10 -25 -12 -48 -2 -22 -11 -52 -19 -64
-8 -13 -20 -57 -28 -98 -7 -41 -17 -80 -22 -87 -5 -6 -10 -35 -11 -65 -2 -29
-5 -58 -9 -63 -4 -6 -9 -72 -13 -146 -5 -103 -2 -152 9 -205 8 -38 17 -85 20
-104 14 -94 28 -145 60 -212 19 -40 38 -85 41 -101 4 -15 13 -31 19 -35 7 -4
31 -47 54 -95 42 -88 89 -148 196 -247 120 -111 174 -166 176 -180 5 -34 -1
-51 -22 -59 -20 -7 -22 -14 -19 -67 1 -32 6 -61 9 -64 12 -9 32 -49 32 -64 0
-8 15 -20 33 -27 19 -6 34 -17 34 -23 1 -6 4 -25 8 -42 6 -26 2 -36 -18 -55
-65 -62 -102 -194 -57 -206 11 -3 20 -9 20 -15 0 -5 7 -5 18 1 12 6 23 5 37
-5 10 -8 16 -14 12 -14 -4 0 1 -8 12 -19 12 -12 17 -28 14 -44 -3 -13 0 -35 7
-47 6 -12 13 -30 15 -40 7 -39 41 -69 100 -91 33 -12 65 -26 70 -30 18 -14
254 -53 263 -44 3 3 27 -11 53 -30 39 -28 60 -35 106 -38 32 -3 66 0 75 4 12
7 22 4 35 -10 25 -25 57 -41 85 -41 32 0 48 -18 48 -52 0 -18 10 -38 26 -53
l27 -25 -30 0 c-40 0 -70 -31 -79 -82 -4 -24 -9 -54 -11 -68 -10 -52 -4 -75
21 -97 15 -12 29 -36 32 -53 4 -16 10 -30 15 -30 5 0 9 -14 9 -30 0 -18 8 -37
20 -47 11 -10 20 -23 20 -31 0 -7 7 -15 14 -18 23 -9 96 -111 96 -133 0 -11 7
-26 15 -35 8 -8 15 -24 15 -35 0 -11 9 -25 21 -31 11 -7 25 -25 31 -41 5 -16
14 -29 19 -29 5 0 9 -9 9 -19 0 -11 8 -26 18 -33 10 -7 26 -39 36 -70 10 -32
21 -58 25 -58 4 0 12 -21 19 -46 16 -61 47 -128 67 -144 8 -7 15 -28 15 -47 0
-49 29 -143 46 -150 8 -3 14 -16 14 -28 0 -13 5 -27 10 -30 6 -3 10 -17 10
-31 0 -13 4 -24 9 -24 5 0 19 -22 32 -49 19 -39 33 -52 69 -68 25 -12 57 -23
73 -27 15 -3 27 -13 27 -21 0 -8 15 -28 33 -45 17 -17 43 -40 56 -53 l24 -22
-79 -11 c-43 -6 -106 -18 -139 -28 -78 -22 -123 -34 -158 -41 -15 -3 -27 -11
-25 -18 1 -7 -2 -26 -6 -43 -6 -29 -12 -31 -89 -50 -73 -17 -84 -23 -98 -50
-20 -40 -85 -97 -115 -101 -13 -2 -42 -10 -65 -18 -22 -8 -45 -12 -50 -9 -5 3
-9 -2 -9 -10 0 -9 -3 -17 -7 -17 -5 -1 -24 -3 -43 -5 -19 -2 -41 -6 -47 -9
-10 -3 -13 15 -13 70 0 75 -16 115 -46 115 -7 0 -14 6 -17 14 -8 19 -80 26
-149 14 -52 -9 -66 -17 -113 -63 -29 -29 -56 -62 -60 -74 -3 -12 -10 -21 -15
-21 -5 0 -9 -8 -10 -17 0 -10 -1 -35 -2 -56 -1 -32 -6 -39 -38 -54 -20 -10
-58 -44 -85 -77 -52 -62 -84 -81 -150 -90 -33 -4 -148 -19 -165 -21 -3 0 -26
-12 -52 -28 -26 -15 -49 -27 -52 -27 -4 0 -26 -9 -51 -21 -30 -14 -45 -28 -45
-40 0 -10 -5 -19 -10 -19 -34 0 -65 -225 -37 -276 8 -16 23 -48 32 -71 10 -24
22 -43 27 -43 5 0 7 -4 4 -9 -4 -5 2 -7 13 -4 16 4 22 -6 40 -61 11 -36 21
-76 21 -88 0 -13 8 -39 19 -58 10 -19 19 -57 19 -83 1 -28 7 -54 17 -63 8 -9
15 -24 15 -35 0 -10 9 -54 21 -96 15 -55 28 -83 45 -96 13 -10 24 -26 24 -36
0 -9 4 -21 9 -27 5 -5 16 -34 26 -64 9 -30 27 -76 41 -101 16 -30 23 -58 20
-80 -2 -18 2 -38 9 -45 7 -7 16 -39 19 -71 4 -32 10 -69 14 -83 17 -70 0 -293
-26 -354 -24 -54 -45 -66 -72 -41 -19 18 -20 17 -20 -15 0 -25 -3 -31 -16 -26
-9 3 -18 6 -20 6 -2 0 -4 7 -4 15 0 8 -4 15 -10 15 -5 0 -10 -6 -10 -14 0 -8
-13 -17 -30 -21 -17 -4 -32 -15 -36 -28 -4 -11 -16 -28 -27 -37 -20 -17 -20
-20 -8 -135 15 -140 28 -187 71 -257 30 -48 32 -55 20 -83 -7 -16 -18 -61 -25
-99 -7 -40 -19 -75 -29 -81 -12 -9 -16 -29 -16 -79 l0 -66 4234 0 4234 0 -6
23 c-3 12 -18 45 -33 72 -27 49 -28 53 -22 163 3 61 9 112 13 112 4 0 10 17
14 39 4 28 15 46 40 65 19 14 36 36 38 48 5 37 -27 148 -42 148 -5 0 -11 15
-15 32 -6 32 -23 73 -53 132 -19 36 -41 134 -57 246 -9 69 -28 123 -47 140
-11 9 -21 36 -25 65 -3 28 -12 54 -20 58 -7 4 -13 21 -13 36 0 19 -7 32 -24
40 -21 12 -24 21 -28 90 -3 52 1 99 14 150 23 94 23 105 -4 144 -12 18 -30 44
-40 59 -13 19 -18 46 -18 92 0 36 -4 67 -9 71 -5 3 -12 36 -16 73 -6 66 -12
108 -22 167 -3 17 -13 49 -24 72 -10 23 -19 51 -19 61 0 11 -7 25 -15 32 -8 7
-15 21 -15 31 0 11 -6 19 -13 19 -7 0 -19 21 -26 48 -33 115 -55 170 -85 212
-43 59 -76 157 -76 220 0 28 -5 56 -10 63 -6 7 -28 37 -50 67 -70 97 -75 102
-105 136 -16 18 -39 50 -50 71 -11 21 -25 43 -30 49 -6 6 -19 38 -29 70 -10
33 -23 66 -28 74 -5 8 -14 26 -20 40 -6 14 -38 48 -70 75 -33 28 -68 66 -79
85 -28 52 -61 87 -89 95 -63 17 -80 28 -80 50 0 42 -49 71 -142 84 -45 7 -96
14 -113 17 -16 2 -52 7 -80 10 -27 3 -68 12 -90 21 -24 9 -69 15 -114 14 -51
-1 -79 3 -90 13 -16 14 -40 20 -201 50 -212 38 -289 50 -350 51 -79 2 -227 20
-375 46 -167 29 -205 38 -238 54 -17 8 -46 15 -66 15 -20 0 -48 7 -64 15 -16
8 -99 20 -200 30 -143 13 -197 13 -321 4 -200 -15 -233 -11 -352 48 -86 42
-119 67 -172 128 -6 8 -30 19 -52 25 -28 7 -45 19 -52 36 -6 13 -26 34 -45 45
l-33 21 0 96 c-1 58 -7 113 -15 137 -10 28 -15 85 -15 188 l0 148 22 -7 c61
-19 121 14 134 75 3 14 13 42 22 61 8 19 21 83 27 143 8 81 16 114 32 136 12
16 20 40 19 55 -2 16 2 26 10 26 7 0 16 16 20 37 10 51 -2 371 -14 386 -5 6
-12 24 -15 38 -4 14 -22 43 -42 63 -30 32 -35 44 -35 87 0 35 4 51 15 55 8 4
15 17 15 29 0 13 3 25 8 27 4 2 17 21 28 43 18 33 29 41 58 46 21 3 42 11 49
18 6 6 19 11 29 11 16 0 18 10 18 85 0 117 24 162 70 132 17 -10 24 -8 45 16
14 15 30 27 35 27 6 0 10 5 10 11 0 16 21 33 73 58 26 12 47 26 47 30 0 4 11
13 25 19 14 6 25 20 25 30 0 10 4 22 9 28 5 5 12 54 17 109 17 199 6 302 -34
320 -12 5 -22 13 -22 17 0 5 -7 8 -15 8 -20 0 -19 48 0 74 8 11 15 39 15 63 0
24 5 43 10 43 6 0 10 9 10 21 0 20 27 78 42 89 4 3 10 25 13 49 6 49 17 67 47
76 17 6 19 15 17 71 -1 35 1 67 4 71 4 3 7 23 7 44 0 21 5 41 10 44 6 3 10 19
10 36 0 16 5 29 10 29 6 0 10 14 10 30 0 17 5 30 10 30 6 0 10 8 10 18 0 9 9
42 21 72 18 47 20 74 19 205 -2 82 1 158 5 168 12 29 -18 340 -35 362 -4 6
-11 25 -15 44 -4 19 -16 50 -26 68 -11 19 -19 40 -19 48 0 25 -34 125 -42 125
-4 0 -8 8 -8 19 0 10 -7 24 -15 31 -8 7 -15 18 -15 24 0 6 -9 17 -20 24 -11 7
-20 23 -20 37 0 32 -39 95 -84 135 -18 17 -36 44 -39 59 -3 16 -17 42 -31 59
-15 16 -26 34 -26 39 0 5 -13 22 -30 38 -16 16 -30 37 -30 47 0 10 -17 29 -39
42 -36 23 -101 92 -101 108 0 11 -50 58 -62 58 -6 0 -25 15 -43 33 -31 32 -39
37 -125 76 -46 21 -140 26 -140 7z"/>
</g>
</svg>
